<svg id="Capa_1" enable-background="new 0 0 503.879 503.879" height="512" viewBox="0 0 503.879 503.879" width="512" xmlns="http://www.w3.org/2000/svg"><g><path d="m437.622 129.522v-80.313c0-16.004-13.073-28.968-29.211-28.968h-363.766c-16.138 0-29.211 12.965-29.211 28.968v32.433 75.095h419.757z" fill="#f9f3f1"/><path d="m75.29 20.238c-16.131 0-29.207 12.964-29.207 28.972v107.531h-30.647v-107.531c0-16.008 13.076-28.972 29.207-28.972z" fill="#e1d3ce"/><path d="m455.259 159.343v256.341c0 18.866-15.423 34.161-34.447 34.161h-386.363c-19.025 0-34.447-15.294-34.447-34.161v-306.899c0-17.508 14.312-31.701 31.967-31.701h67.793c23.776 0 43.771 16.056 49.562 37.833 1.615 6.075 7.215 10.266 13.55 10.266h257.938c19.024-.001 34.447 15.293 34.447 34.16z" fill="#ffe177"/><path d="m503.879 143.141v296.25c0 24.44-19.81 44.25-44.25 44.25h-196.95c-24.97 0-45.21-20.23-45.21-45.2v-294.35c0-24.96 20.24-45.2 45.21-45.2h196.95c24.44 0 44.25 19.81 44.25 44.25z" fill="#7a6d79"/><path d="m465.139 167.111v44.89c0 5.6-4.54 10.14-10.14 10.14h-189.34c-5.6 0-10.14-4.54-10.14-10.14v-44.89c0-5.6 4.54-10.14 10.14-10.14h189.34c5.6 0 10.14 4.54 10.14 10.14z" fill="#8ac9fe"/><g fill="#433f43"><path d="m295.349 300.962h-31.229c-5.131 0-9.29-4.159-9.29-9.29v-18.956c0-5.131 4.159-9.29 9.29-9.29h31.229c5.131 0 9.29 4.159 9.29 9.29v18.956c0 5.131-4.159 9.29-9.29 9.29z"/><path d="m456.052 300.962h-31.229c-5.131 0-9.29-4.159-9.29-9.29v-18.956c0-5.131 4.159-9.29 9.29-9.29h31.229c5.131 0 9.29 4.159 9.29 9.29v18.956c0 5.131-4.159 9.29-9.29 9.29z"/><path d="m375.7 300.962h-31.229c-5.131 0-9.29-4.159-9.29-9.29v-18.956c0-5.131 4.159-9.29 9.29-9.29h31.229c5.131 0 9.29 4.159 9.29 9.29v18.956c.001 5.131-4.159 9.29-9.29 9.29z"/><path d="m296.367 369.04h-31.229c-5.131 0-9.29-4.159-9.29-9.29v-18.956c0-5.131 4.159-9.29 9.29-9.29h31.229c5.131 0 9.29 4.159 9.29 9.29v18.956c0 5.131-4.159 9.29-9.29 9.29z"/></g><path d="m457.231 435.878h-31.229c-5.131 0-9.29-4.159-9.29-9.29v-81.189c0-5.131 4.159-9.29 9.29-9.29h31.229c5.131 0 9.29 4.159 9.29 9.29v81.189c0 5.131-4.16 9.29-9.29 9.29z" fill="#fe646f"/><path d="m377.308 369.04h-31.229c-5.131 0-9.29-4.159-9.29-9.29v-18.956c0-5.131 4.159-9.29 9.29-9.29h31.229c5.131 0 9.29 4.159 9.29 9.29v18.956c0 5.131-4.159 9.29-9.29 9.29z" fill="#433f43"/><path d="m295.349 437.118h-31.229c-5.131 0-9.29-4.159-9.29-9.29v-18.956c0-5.131 4.159-9.29 9.29-9.29h31.229c5.131 0 9.29 4.159 9.29 9.29v18.956c0 5.131-4.159 9.29-9.29 9.29z" fill="#433f43"/><path d="m376.29 437.118h-31.229c-5.131 0-9.29-4.159-9.29-9.29v-18.956c0-5.131 4.159-9.29 9.29-9.29h31.229c5.131 0 9.29 4.159 9.29 9.29v18.956c0 5.131-4.159 9.29-9.29 9.29z" fill="#433f43"/><path d="m65.094 449.839h-30.647c-19.021 0-34.447-15.292-34.447-34.151v-306.9c0-17.51 14.312-31.699 31.965-31.699h30.647c-17.653 0-31.965 14.19-31.965 31.699v306.9c0 18.859 15.426 34.151 34.447 34.151z" fill="#ffd064"/><path d="m293.319 483.641h-30.64c-24.97 0-45.21-20.23-45.21-45.2v-294.35c0-24.96 20.24-45.2 45.21-45.2h30.64c-24.96 0-45.2 20.24-45.2 45.2v294.35c0 24.97 20.24 45.2 45.2 45.2z" fill="#685e68"/><path d="m295.519 222.141h-29.86c-5.6 0-10.14-4.54-10.14-10.14v-44.89c0-5.6 4.54-10.14 10.14-10.14h29.86c-5.72 0-10.35 4.63-10.35 10.35v44.46c0 5.72 4.63 10.36 10.35 10.36z" fill="#60b7ff"/></g></svg>