<svg id="Capa_1" enable-background="new 0 0 512 512" height="512" viewBox="0 0 512 512" width="512" xmlns="http://www.w3.org/2000/svg"><g><g><g><path d="m427.989 477.867h66.945c9.426 0 17.067-7.641 17.067-17.067v-256c0-9.426-7.641-17.067-17.067-17.067h-66.945z" fill="#dd6587"/><path d="m81.951 477.867h-64.884c-9.426 0-17.067-7.641-17.067-17.067v-256c0-9.426 7.641-17.067 17.067-17.067h64.884z" fill="#7fe0fc"/><path d="m494.933 187.734h-23.694c9.426 0 17.067 7.641 17.067 17.066v256c0 9.426-7.641 17.067-17.067 17.067h23.694c9.426 0 17.067-7.641 17.067-17.067v-256c0-9.426-7.641-17.066-17.067-17.066z" fill="#cc5880"/><path d="m53.492 187.734h28.459v290.133h-28.459z" fill="#6cbef2"/><g fill="#e9f5fc"><path d="m427.989 436.007v15.453h84.011v-15.453z"/><path d="m0 436.007v15.453h81.951v-15.453z"/></g></g><path d="m409.6 153.6c0-84.831-68.769-153.6-153.6-153.6s-153.6 68.769-153.6 153.6v17.067h307.2z" fill="#355b90"/><path d="m256 0c-3.986 0-7.937.152-11.847.45 79.295 6.049 141.753 72.305 141.753 153.15v17.067h23.694v-17.067c0-84.831-68.769-153.6-153.6-153.6z" fill="#2b4983"/><path d="m307.2 153.6c0-28.277-22.923-51.2-51.2-51.2s-51.2 22.923-51.2 51.2v17.067h102.4z" fill="#e9f5fc"/><g><path d="m136.533 161.326c-4.268 0-7.726-3.459-7.726-7.726 0-70.135 57.058-127.193 127.193-127.193 4.268 0 7.726 3.459 7.726 7.726s-3.459 7.726-7.726 7.726c-61.614 0-111.74 50.127-111.74 111.741 0 4.267-3.459 7.726-7.727 7.726z" fill="#2b4983"/></g><g><path d="m170.667 161.326c-4.268 0-7.726-3.459-7.726-7.726 0-51.313 41.747-93.059 93.059-93.059 4.268 0 7.726 3.459 7.726 7.726s-3.459 7.726-7.726 7.726c-42.793 0-77.607 34.814-77.607 77.607 0 4.267-3.458 7.726-7.726 7.726z" fill="#2b4983"/></g><path d="m256 102.4c-4.08 0-8.043.491-11.847 1.393 22.562 5.348 39.353 25.61 39.353 49.807v17.067h23.694v-17.067c0-28.277-22.923-51.2-51.2-51.2z" fill="#c5e0fa"/><path d="m418.717 153.6h-293.911v358.4h293.911c9.103 0 16.483-7.38 16.483-16.483v-325.434c0-9.103-7.38-16.483-16.483-16.483z" fill="#8efcb4"/><path d="m230.933 426.667h-52.267c-4.418 0-8 3.582-8 8v35.2c0 4.418 3.582 8 8 8h52.267c4.418 0 8-3.582 8-8v-35.2c0-4.419-3.581-8-8-8z" fill="#f5de84"/><g><g><path d="m307.2 442.927h-34.134c-4.268 0-7.726-3.459-7.726-7.726 0-4.268 3.459-7.726 7.726-7.726h34.134c4.268 0 7.726 3.459 7.726 7.726.001 4.267-3.458 7.726-7.726 7.726z" fill="#355b90"/></g></g><g><g><path d="m341.333 477.059h-68.267c-4.268 0-7.726-3.459-7.726-7.726 0-4.268 3.459-7.726 7.726-7.726h68.267c4.268 0 7.726 3.459 7.726 7.726 0 4.268-3.458 7.726-7.726 7.726z" fill="#e9f5fc"/></g></g><g><g><g><path d="m401.066 477.059h-25.6c-4.268 0-7.726-3.459-7.726-7.726 0-4.268 3.459-7.726 7.726-7.726h25.6c4.268 0 7.726 3.459 7.726 7.726.001 4.268-3.458 7.726-7.726 7.726z" fill="#e9f5fc"/></g></g></g><path d="m230.692 426.667h-23.694c4.551 0 8.241 3.69 8.241 8.241v34.717c0 4.552-3.69 8.241-8.241 8.241h23.694c4.552 0 8.242-3.69 8.242-8.241v-34.717c-.001-4.552-3.691-8.241-8.242-8.241z" fill="#efc56c"/><path d="m93.283 153.6c-9.103 0-16.483 7.38-16.483 16.483v325.434c0 9.103 7.38 16.483 16.483 16.483h34.717v-358.4z" fill="#355b90"/><path d="m418.717 153.6h-23.694c9.103 0 16.483 7.38 16.483 16.483v325.434c0 9.103-7.379 16.483-16.483 16.483h23.694c9.103 0 16.483-7.38 16.483-16.483v-325.434c0-9.103-7.38-16.483-16.483-16.483z" fill="#7bd9c2"/><path d="m104.306 153.6h23.694v358.4h-23.694z" fill="#2b4983"/></g><g><path d="m384.533 358.4h-154.666c-4.418 0-8-3.582-8-8v-154.667c0-4.418 3.582-8 8-8h154.667c4.418 0 8 3.582 8 8v154.667c-.001 4.418-3.582 8-8.001 8z" fill="#e9f5fc"/><path d="m384.292 187.734h-23.694c4.552 0 8.241 3.69 8.241 8.241v154.184c0 4.552-3.69 8.241-8.241 8.241h23.694c4.552 0 8.241-3.69 8.241-8.241v-154.184c0-4.552-3.689-8.241-8.241-8.241z" fill="#c5e0fa"/><path d="m355.469 222.218c-3.529-5.028-9.464-7.556-15.347-6.819l-51.199 6.399c-8.12 1.016-14.242 7.953-14.242 16.135v52.281c-.532-.05-1.069-.081-1.614-.081-9.693 0-17.499 8.081-17.048 17.873.4 8.691 7.551 15.842 16.242 16.242 9.792.451 17.873-7.355 17.873-17.048v-.001-40.622c0-4.156 3.095-7.662 7.219-8.178l36.331-4.541c4.919-.615 9.264 3.221 9.264 8.178v28.18c-.532-.05-1.069-.081-1.614-.081-9.704 0-17.516 8.098-17.047 17.905.412 8.605 7.436 15.704 16.037 16.199 9.615.554 17.605-6.861 18.036-16.247.026-.26.04-.524.04-.79v-75.269c0-3.457-.946-6.887-2.931-9.715z" fill="#355b90"/></g></g></svg>