<svg id="Capa_1" enable-background="new 0 0 512 512" height="512" viewBox="0 0 512 512" width="512" xmlns="http://www.w3.org/2000/svg"><g><g><path clip-rule="evenodd" d="m380.578 40.94c-2.109-5.821-5.079-11.257-11.256-11.257h-120.196c-6.207 0-9.148 5.435-11.256 11.257l-10.93 30.206 84.704 9.712 79.863-9.712z" fill="#7e707d" fill-rule="evenodd"/></g><g><path clip-rule="evenodd" d="m391.507 71.146-10.93-30.206c-2.109-5.821-5.079-11.257-11.256-11.257h-43.213c6.207 0 9.177 5.435 11.256 11.257l10.93 30.206z" fill="#6a5c6b" fill-rule="evenodd"/></g><g><path clip-rule="evenodd" d="m137.365 80.858v-36.116c0-5.91-4.811-10.722-10.722-10.722h-34.422c-5.881 0-10.692 4.812-10.692 10.722v36.116z" fill="#7e707d" fill-rule="evenodd"/></g><g><path clip-rule="evenodd" d="m512 197.73v-105.348c0-11.672-9.534-21.236-21.206-21.236h-363.141v126.584z" fill="#a0ddfa" fill-rule="evenodd"/></g><g><path clip-rule="evenodd" d="m512 343.828v-100.893c-138.55 0-248.559 0-384.347 0v122.129h363.141c11.672 0 21.206-9.564 21.206-21.236z" fill="#a0ddfa" fill-rule="evenodd"/></g><g><path clip-rule="evenodd" d="m426.464 188.018c-13.84-45.68-56.252-78.945-106.474-78.945-50.193 0-92.604 33.265-106.444 78.945-3.118 10.217-4.782 21.058-4.782 32.314 0 11.227 1.663 22.068 4.782 32.314 13.84 45.68 56.252 78.915 106.444 78.915 50.223 0 92.634-33.235 106.474-78.915 3.118-10.247 4.782-21.088 4.782-32.314 0-11.256-1.663-22.097-4.782-32.314z" fill="#7e707d" fill-rule="evenodd"/></g><g><path clip-rule="evenodd" d="m426.464 252.647c3.118-10.247 4.782-21.088 4.782-32.314 0-11.257-1.663-22.097-4.782-32.314-13.84-45.68-56.252-78.945-106.474-78.945-3.98 0-7.93.208-11.821.624 42.619 6.534 77.249 37.215 89.486 77.638.089.238.149.445.208.683 2.97 10.039 4.574 20.642 4.574 31.631 0 11.257-1.663 22.097-4.782 32.314-.059.238-.119.446-.208.683-12.919 41.7-49.718 72.915-94.446 77.638 5.554.832 11.227 1.277 16.988 1.277 50.224 0 92.635-33.235 106.475-78.915z" fill="#6a5c6b" fill-rule="evenodd"/></g><g><path clip-rule="evenodd" d="m512 92.382c0-11.672-9.534-21.236-21.206-21.236h-35.788c11.672 0 21.235 9.564 21.235 21.236v20.018 75.618h35.759z" fill="#75cef9" fill-rule="evenodd"/></g><g><path clip-rule="evenodd" d="m512 343.828v-91.181h-35.759v91.181c0 11.643-9.534 21.206-21.206 21.236h.03 35.729c11.672 0 21.206-9.564 21.206-21.236z" fill="#75cef9" fill-rule="evenodd"/></g><g><path clip-rule="evenodd" d="m390.646 220.332c0-11.643-2.821-22.632-7.811-32.314-11.731-22.78-35.462-38.344-62.845-38.344-27.354 0-51.084 15.563-62.815 38.344-4.99 9.682-7.811 20.672-7.811 32.314 0 11.643 2.821 22.632 7.811 32.314 11.731 22.751 35.462 38.314 62.815 38.314 27.383 0 51.114-15.563 62.845-38.314 4.99-9.682 7.811-20.671 7.811-32.314z" fill="#eff6ff" fill-rule="evenodd"/></g><g><path clip-rule="evenodd" d="m390.646 220.332c0-11.643-2.821-22.632-7.811-32.314-11.731-22.78-35.462-38.344-62.845-38.344-6.92 0-13.632 1.01-19.988 2.881 21.622 3.564 39.946 16.989 50.193 35.463.356.624.683 1.277 1.04 1.901 4.99 9.682 7.781 20.672 7.781 32.314 0 10.9-2.435 21.206-6.831 30.414-.327.624-.624 1.277-.95 1.901-8.761 16.989-24.205 29.968-42.857 35.463 3.772.624 7.663.95 11.613.95 27.383 0 51.114-15.563 62.845-38.314 4.989-9.683 7.81-20.672 7.81-32.315z" fill="#d9eeff" fill-rule="evenodd"/></g><g><path clip-rule="evenodd" d="m213.546 252.647c-3.118-10.247-4.782-21.088-4.782-32.314 0-11.257 1.663-22.097 4.782-32.314h-76.18l-16.186 27.414 16.186 37.215h76.18z" fill="#ffbc85" fill-rule="evenodd"/></g><g><path clip-rule="evenodd" d="m512 252.647v-64.629h-85.536c3.118 10.217 4.782 21.058 4.782 32.314 0 11.227-1.663 22.068-4.782 32.314h85.536z" fill="#ffbc85" fill-rule="evenodd"/></g><g><path clip-rule="evenodd" d="m512 242.935v-45.205-9.712h-35.759v9.712 45.205 9.712h35.759z" fill="#f5a96c" fill-rule="evenodd"/></g><g><path clip-rule="evenodd" d="m137.365 188.018v-116.872h-55.836c-13.187 0-24.532 6.683-24.532 21.236v54.649l24.918 68.401c1.129 3.119-20.731 62.342-24.918 70.42v57.976c0 11.672 9.534 21.236 21.206 21.236h59.162v-112.417z" fill="#fde588" fill-rule="evenodd"/></g><g><path clip-rule="evenodd" d="m95.756 280.12v-127.357c0-3.148-2.584-5.732-5.732-5.732h-33.027v138.821h33.026c3.149 0 5.733-2.584 5.733-5.732z" fill="#7e707d" fill-rule="evenodd"/></g><g><path clip-rule="evenodd" d="m137.365 188.018v-107.16-9.712h-9.712-15.117v9.712 284.206h15.117 9.712v-112.417-9.712-45.205z" fill="#fdd76f" fill-rule="evenodd"/></g><g><path clip-rule="evenodd" d="m137.365 44.742c0-5.91-4.811-10.722-10.722-10.722h-24.799c5.881 0 10.692 4.812 10.692 10.722v26.404h15.117 9.712z" fill="#6a5c6b" fill-rule="evenodd"/></g><g><path d="m457.471 120.127h-24.502c-4.268 0-7.726-3.459-7.726-7.726 0-4.268 3.459-7.726 7.726-7.726h24.502c4.268 0 7.726 3.459 7.726 7.726s-3.459 7.726-7.726 7.726z" fill="#fdd76f"/></g><g><path clip-rule="evenodd" d="m261.422 422.654-34.719-178.947c-2.02-10.514-12.296-17.434-22.78-15.415l-188.179 36.502c-10.514 2.05-17.434 12.297-15.384 22.811l34.689 178.977c2.049 10.484 12.296 17.405 22.81 15.385l188.179-36.502c10.513-2.05 17.433-12.297 15.384-22.811z" fill="#eff6ff" fill-rule="evenodd"/></g><g><path clip-rule="evenodd" d="m71.818 439.643 143.302-27.8c3.534-.683 6.029-3.416 5.494-6.059l-10.306-51.768-7.544-37.868-25.72 4.99c-21.562 4.188-33.294 9.682-41.877 15.741-3.653 2.554-6.712 5.198-9.712 7.9-3.415 3.059-6.742 6.148-10.722 9.237-10.87 8.405-26.611 16.603-61.984 22.929l7.573 37.839 4.128 21.295c.507 2.643 3.833 4.247 7.368 3.564z" fill="#a0ddfa" fill-rule="evenodd"/></g><g><path clip-rule="evenodd" d="m116.932 365.064c3.98-3.089 7.306-6.207 10.722-9.267 3-2.673 6.088-5.346 9.712-7.9 8.583-6.029 20.344-11.524 41.907-15.712l25.69-4.99-10.603-53.342c-.535-2.643-3.831-4.247-7.366-3.564l-49.629 9.623-9.712 1.901-15.117 2.911-55.539 10.781-13.335 2.584c-3.534.683-5.999 3.416-5.494 6.059l16.78 83.845c35.373-6.356 51.114-14.553 61.984-22.929z" fill="#fde588" fill-rule="evenodd"/></g><g><path clip-rule="evenodd" d="m204.962 327.196-10.603-53.342c-.535-2.643-3.831-4.247-7.366-3.564l-21.711 4.217c3.505-.653 6.772.95 7.276 3.594l10.633 53.313z" fill="#fdd76f" fill-rule="evenodd"/></g><g><path clip-rule="evenodd" d="m212.506 365.064-7.544-37.868-21.77 4.218 6.682 33.651.861 4.217 8.108 40.72c.505 2.643-1.96 5.376-5.494 6.059l21.77-4.217c3.534-.683 6.029-3.416 5.494-6.059z" fill="#75cef9" fill-rule="evenodd"/></g><g><path clip-rule="evenodd" d="m236.415 293.723-9.712-50.016c-.03-.267-.089-.535-.148-.772-1.99-8.376-9.237-14.316-17.523-14.939-1.693-.119-3.386-.03-5.108.297l-47.045 9.148c6.593-1.277 13.127 1.01 17.523 5.495 2.554 2.584 4.425 5.91 5.197 9.712 0 .059.03.119.03.178l3.534 18.207 3.831-.743c3.534-.683 6.831.921 7.366 3.564l10.603 53.342 7.544 37.868 8.108 40.72c.535 2.643-1.96 5.376-5.494 6.059l-4.485.861 3.712 19.098c2.02 10.455-4.841 20.672-15.295 22.78l46.985-9.118c10.514-2.049 17.434-12.296 15.385-22.81l-11.167-57.59z" fill="#d9eeff" fill-rule="evenodd"/></g><g><path d="m70.194 447.525c-3.001 0-5.897-.84-8.253-2.437-2.692-1.825-4.495-4.51-5.078-7.561l-4.124-21.274-22.147-110.588c-1.341-7.016 3.763-13.647 11.604-15.162l143.327-27.8c7.811-1.5 15.014 2.716 16.41 9.618l26.26 131.955c.613 3.03-.046 6.202-1.86 8.91-2.132 3.182-5.684 5.458-9.746 6.242l-143.298 27.799c-1.032.201-2.07.298-3.095.298zm1.839-12.939.004.022c-.001-.007-.002-.014-.004-.022zm-25.726-129.14 21.593 107.82 3.6 18.568 140.978-27.349-25.152-126.39zm166.729 101.844c.001.009.003.017.005.025zm-169.374-109.201h.01z" fill="#7e707d"/></g></g></svg>