<svg id="Capa_1" enable-background="new 0 0 512 512" height="512" viewBox="0 0 512 512" width="512" xmlns="http://www.w3.org/2000/svg"><g><path d="m315.344 136.339s0-71.778-35.478-71.763c-29.349.012-30.74 30.262-11.603 86.203z" fill="#e7889d"/><path d="m267.114 94c-3.883 1.753-7.746 2.932-11.407 3.521.806 13.708 5.125 31.537 12.556 53.259l47.081-14.44s-.003-23.715-6.741-43.88c-6.06-2.164-12.47-3.312-18.882-3.312-7.87-.001-15.477 1.632-22.607 4.852z" fill="#e16e7e"/><path d="m430.313 285.015-65.678-24.713c-17.973-6.763-30.857-22.752-33.642-41.752l-9.701-66.162c-1.617-11.031-7.628-20.938-16.663-27.469-7.208-5.21-16.691-6.412-24.797-2.752-38.767 17.505-77.909.316-76.144-47.071.518-13.894-5.619-27.194-16.888-35.339l-1.052-.76c-9.44-6.823-22.478-5.573-30.45 2.92l-118.652 126.405 209.899 210.47c15.475 15.517 36.489 24.238 58.404 24.238h207.051c0-52.509-32.541-99.523-81.687-118.015z" fill="#fbf1cf"/><path d="m176.522 308.579c-1.936-76.213 15.897-156.43 38.759-194.814-7.745-9.003-12.216-21.955-11.593-38.669.518-13.894-5.619-27.194-16.888-35.339l-1.052-.76c-9.44-6.823-22.478-5.573-30.45 2.92l-118.652 126.405z" fill="#fae0bd"/><path d="m203.935 84.869c-.283-3.101-.375-6.356-.247-9.773.518-13.894-5.619-27.194-16.888-35.339l-1.051-.76c-9.44-6.823-22.478-5.573-30.45 2.92l-31.392 33.443c25.904 15.942 59.685 21.499 80.028 9.509z" fill="#e16e7e"/><path d="m512 403.03h-207.051c-21.915 0-42.929-8.721-58.404-24.238l-209.899-210.47-25.449 25.449c-14.915 14.915-14.931 39.092-.035 54.026l170.547 170.991c37.421 37.518 88.232 58.604 141.222 58.604h149.647c21.773 0 39.423-17.65 39.423-39.423v-34.939z" fill="#4e5660"/><path d="m36.646 168.322-25.449 25.449c-14.915 14.915-14.931 39.092-.035 54.026l170.547 170.991c9.463 9.487 19.784 17.919 30.778 25.23-24.205-33.706-34.649-83.648-35.964-135.44z" fill="#3a4351"/><path d="m36.646 168.322 125.683 126.025c-4.869-66.627-26.672-145.343-63.434-192.34z" fill="#a2ddfd"/><path d="m310.2 403.03h201.8c0-50.973-30.667-96.762-77.418-116.314 28.903 27.021 12.713 74.271-26.061 74.271h-56.279c-23.219.001-42.042 18.824-42.042 42.043z" fill="#e7889d"/><path d="m227.77 123.612c.254 75.742 7.769 184.521 142.057 138.643l-5.191-1.953c-17.973-6.763-30.857-22.752-33.643-41.752l-9.701-66.162c-1.617-11.031-7.628-20.938-16.663-27.469-7.208-5.21-16.691-6.412-24.797-2.752-18.847 8.51-37.782 8.818-52.062 1.445z" fill="#a2ddfd"/><g fill="#4e5660"><path d="m330.993 226.05h-40.903c-4.142 0-7.5-3.358-7.5-7.5s3.358-7.5 7.5-7.5h40.903c4.142 0 7.5 3.358 7.5 7.5s-3.357 7.5-7.5 7.5z"/><path d="m324.324 180.568h-38.876c-4.142 0-7.5-3.358-7.5-7.5s3.358-7.5 7.5-7.5h38.876c4.143 0 7.5 3.358 7.5 7.5s-3.357 7.5-7.5 7.5z"/></g></g></svg>